<svg version="1.0" xmlns="http://www.w3.org/2000/svg" width="1029.333" height="136" viewBox="0 0 772 102"><path d="M519.5 1.4c-4.9 2.2-6.9 5-5.8 8.3 1.8 5.6 10.9 7.8 15.4 3.7 3.5-3.2 3.2-10.2-.5-12.6-1.7-1.2-5.8-.9-9.1.6zm8.3 4.9c.9 4.4-5.9 7.4-9.2 4.1-2.1-2.1-2-3 .7-4.9 2.9-2.1 8.1-1.6 8.5.8zm144.3-1.6c-3.5 6.7-9.1 33.6-9.1 43.6 0 13.4 10.5 19.4 27 15.6 4.8-1.1 15.6-6.2 18-8.5 1.2-1.2 1.2-1.6-.1-2.9-1.4-1.4-2.3-1.2-9 1.9-4.1 2-9.8 4-12.6 4.6-5.7 1-13.3.1-15.8-2-4.3-3.6-3.9-15.7 1.2-34.9 3.3-12.6 4-16.4 3.5-17.9-.5-1.7-2-1.5-3.1.5z"/><path d="M722.7 7.7c-5.2 12-3.2 22.3 3.9 19.6 1-.4 4.5-2.6 7.7-5 8.4-6.1 17.3-10.2 24.1-10.9 5.1-.6 6.1-.4 7.2 1.1 8 10.9-19.2 43.6-46.7 56.4-18.3 8.4-65.8 19.9-98.4 23.8-11.4 1.3-22.9 1.8-48 1.8h-33l-16.8-4.3c-26.8-6.8-34.6-7.3-54-3.1-8.7 1.8-44.8 8.1-53.8 9.3-2.5.4-9.8.7-16.1.8-18.6.1-29.7-3.2-32.4-9.7-.7-1.8-1.8-3.6-2.4-4-.5-.3-4.7.3-9.3 1.4-4.5 1.1-18.2 3.6-30.2 5.7-19.9 3.4-23.9 3.7-41 3.8l-19 .1-4.6-2.7c-5-3-9-3.6-10.8-1.5-1.3 1.6.4 3.5 5.8 6.2 10.1 5.1 52.5 3 90.9-4.4l14.3-2.8 2.1 3c4.9 6.9 20.9 10.4 43.3 9.4 14.1-.7 29.3-2.8 59.2-8.2 10.5-1.9 21.9-3.5 25.3-3.5 3.6 0 13.3 1.6 23.3 3.9 24.3 5.6 35.3 6.5 71.6 5.8 42.1-.8 60-3.3 99.5-13.8 31.8-8.4 44.3-14.1 60.9-27.4 11.8-9.5 15.5-13.9 21.7-26 7.2-14 6.5-24.6-1.7-26.1-7.7-1.5-22.1 3.4-33.1 11.3-2.6 1.8-5.2 3.3-5.9 3.3-2.4 0-2.5-4.7-.3-9.8 1.2-2.8 1.9-5.6 1.5-6.1-1.3-2.1-3.2-1-4.8 2.6z"/><path d="M342.4 11.1c-5 1.4-12.6 7-15.8 11.7-2.5 3.6-3 5.2-3.1 10.5v6.2l-4.7 2.3c-7 3.5-11.7 3.9-15 1.2-1.7-1.2-2.8-3.1-2.8-4.5 0-3.5-1.7-7.5-3.5-8.2-1.1-.4-4.4 2.4-10.7 9.1-10.3 11-16.1 14.9-23.3 15.6-5.8.6-7.5 3.3-3 5 6.7 2.5 17.6-3 28-14.3 3.6-3.8 6.7-6.8 6.8-6.6.2.2.9 1.9 1.7 3.7 3 7.6 9.4 9 21.5 4.7 3.9-1.4 7.3-2.5 7.6-2.5.4 0 1.9 1.8 3.3 4.1 1.9 2.8 4.4 4.8 8.2 6.6 3 1.3 5.4 2.8 5.4 3.1 0 1.7-6.3 8.2-11.4 11.7-5.9 4.1-7.1 6.5-3.3 6.5s15.1-9.1 19.2-15.4c1.3-2 2.7-2.4 9.3-2.9 11.1-.9 19.2-5.2 24.7-13 7.6-10.9 13.8-12.6 22.5-6.2 4.4 3.2 6.3 4 10.9 4.2 4.8.3 7.1-.2 16.5-4.1 10.1-4.2 10.8-4.3 10.2-2.3-5.5 19.4-6.2 28.1-3 33.6 1.8 3.1 5.8 5.1 7.2 3.7.3-.4.1-1.5-.6-2.4-3.2-4.4-4.4-8.8-3.9-14.2.6-6.5 6.5-24.6 11.4-34.7 3.2-6.7 3.7-10.3 1.5-10.3-1.2 0-5.5 6.3-7.9 11.4-1.4 3.1-3.1 4.5-8.8 7.3-9.8 5-17 7.3-22.5 7.3-3.9 0-5.8-.7-10.6-4-6.5-4.4-9.3-4.8-15.4-2.4l-4 1.6-4.8-5.1-4.8-5.1h-18.9l-1.8-3.2c-1.3-2.3-2.1-2.8-2.9-2-.9.9-.8 1.8.1 3.8 1.4 3.2 1.1 3.5-5.4 5.9-2.7 1-7.6 3.1-10.8 4.7-3.2 1.6-6.2 2.6-6.7 2.3-2.2-1.3-1-7.4 2-10.9 4.7-5.3 12.5-9.9 15.5-9.2 3.3.8 4.7-2.1 2-4-2.1-1.6-1.9-1.6-6.1-.3zm34.1 20.4c4.3 4.3 2.8 11.5-3.5 16.9-3.5 2.9-11.6 5.6-16.8 5.6-3.9 0-3.9.7-.3-11.5 1.2-3.8 2.1-8.2 2.1-9.6 0-3.4.8-3.7 9.3-3.8 5.9-.1 7.1.2 9.2 2.4zm-24.4 8c-.6 2.3-2 6.3-3 8.9-1.7 3.9-2.5 4.6-4.8 4.6-1.5 0-4.3-.9-6.1-2-3.3-2-7.4-7.7-6.9-9.5.4-1.2 14-8.2 18.2-9.3 2.5-.7 3.1-.6 3.3 1.1.2 1.1-.1 3.9-.7 6.2zm139.3-27.7c-.5.4-1 4-1.1 8 0 4-.4 7.7-.9 8.2-.5.5-3.2-.5-6.4-2.6-3.9-2.4-6.5-3.4-9.5-3.4-4.8.1-14.9 4.8-15.3 7.2-.5 2.4 1.5 2.3 8.2-.7 3.1-1.4 6.5-2.5 7.5-2.5s4.7 1.9 8.1 4.2c6.2 4.1 6.2 4.1 5.6 8-.4 2.1-1.3 5.6-2.2 7.7-1.5 3.7-1.7 3.9-7 4.3-3.9.3-6.6 1.3-9.7 3.4-9.4 6.6-7.4 18.9 2.9 17 3.4-.7 11.5-7.6 13.9-11.9 1-1.8 1.2-1.8 4.7-.2 3.8 1.8 7.3 1.4 6.6-.8-.3-.6-2.1-2.3-4.2-3.7-4.1-2.6-4-2.1-1-12.6l1.5-5.2 6.2-.4c4.5-.3 8.9-1.6 15.9-4.7 10.8-4.7 13.8-7.2 11.9-9.5-1.1-1.3-2.4-.9-9.4 2.9-8.7 4.7-19.5 8.2-22.1 7.2-1.4-.6-1.5-1.9-1-8.9.4-6.2.2-8.7-.8-10-.7-1-1.8-1.4-2.4-1zM481 56c0 1.6-8.5 10-10.2 10-2.5 0-4.4-2.9-3.1-4.8 2.6-4.3 13.3-8.5 13.3-5.2zM73 13.8c-2.7.9-9 6.3-9 7.7 0 3.5 6.7 1.6 11.1-3.1 2-2.1 2.1-2.6.8-3.8-.8-.7-2.1-1.1-2.9-.8zm462.8 2.8c-5.5 2.9-2.7 6.1 3.2 3.7 2-.8 4.9-1.2 6.6-.8 3.7.6 8.4 4 8.4 6 0 .7-2 3.5-4.5 6.3-5.2 5.7-5.6 8.7-2.1 12.9l2.4 2.9-7.1 3.7c-10.8 5.6-14.7 9.6-14.7 15.2 0 3.7 1.6 6.2 5.2 8.1 9.8 5.1 28.8-9.8 27.1-21.2-.4-2.8-.2-3.2 2.7-3.8 1.8-.3 5.3-.6 7.7-.6 4 0 4.4-.2 4.1-2.3-.2-1.8-1-2.3-4.8-2.5-2.5-.2-6.9.2-9.8.8-4.8 1.1-5.6 1-7.4-.7-4.1-3.7-4-4.7.7-10.2 5.3-6.2 6.1-11.3 2.3-14.9-4.7-4.3-14.6-5.6-20-2.6zm19 39c.2 1.2-1.1 4-3 6.5-6.2 8.1-17.8 10.4-18.6 3.7-.4-3.1 2.2-5.2 11.9-9.8 7.1-3.4 9.3-3.5 9.7-.4zM52.6 16.9c-.8 1.2.9 5.7 2.4 6.6 2.2 1.4 3.3-1.1 1.9-4.1-1.5-3-3.4-4.1-4.3-2.5zm570.3 3.3c-10.9 1.4-20.8 6.7-28.7 15.3-8.6 9.2-9.6 17.6-2.5 21.3 5.2 2.8 13.8.3 25.2-7.3 8.1-5.3 12.5-9.4 14.7-13.7 1.4-2.8 1.4-3.2-.1-4.7-1.8-1.8-1.1-2.4-7.6 6.1-2.9 3.6-16.4 12.2-22.7 14.3-16.2 5.6-8-13.1 9.7-22 16-8 29.6-6.2 35.1 4.5 2.5 4.9 2.5 6.6 0 11.5-2.3 4.6-2.5 5.9-.7 7.3 4.8 4 8.9-12.5 5.1-20.1-5-10-14.4-14.2-27.5-12.5zm-454.2 4.2c-.7 1.8.7 2.9 5.2 4.5 4.6 1.5 9.4 1.5 8.9-.2-.7-1.8-7.9-5.7-10.9-5.7-1.5 0-2.9.6-3.2 1.4zm-16.4 2.2c-4.6 2.7-9.3 9.6-9.3 13.5 0 3.5 3.3 8.4 6.6 9.7 1.6.6 7.3 2 12.7 3.1 5.4 1.1 10.5 2.5 11.3 3.2 2.5 2.1 1.7 7.5-1.7 11.4-3.5 3.9-3.3 6.8.3 6.3 5.7-.8 8.6-11.7 5-18.8-2.2-4.5-6.7-6.7-16.3-7.8-13.6-1.7-16.7-5-11-11.5 4.1-4.7 9.4-7.1 12.1-5.7 2.7 1.4 2.5 3-.2 3-3.6 0-4.6 1.2-5.3 6.2l-.7 4.8h7.2c6.5 0 7.1-.2 6.5-1.8-.4-.9-.9-3.1-1-4.7-.1-1.7-.2-4.3-.3-5.8-.3-4-4.3-7.7-8.4-7.7-1.8 0-5.2 1.2-7.5 2.6zm-77.8.6c-4.9.5-14.7.6-21.6.2-9.2-.4-12.9-.2-13.4.6-1.4 2.2 2.3 4.3 8.7 4.9l6.3.6-2.9 2.2C50 37 47.9 38 46.9 38c-2.5 0-3 1.3-1.8 4.9 1 2.8.8 3.5-2 7-1.7 2.1-3.1 4.6-3.1 5.4 0 1.7 2.7 3.1 3.4 1.8.3-.5 4.7-.9 9.7-.9 5.1-.1 9.6-.5 10.2-1.1 2-2-.6-3.1-7.3-3.1-6 0-6.9-.2-6.3-1.6.5-1.4 1.8-1.6 7.5-1.2 5 .4 6.8.2 6.8-.7 0-2.2-2.4-3.4-7.8-3.7-7.2-.4-5.5-2.8 2.5-3.5C64 40.8 65 41 67 43c2.3 2.3 2.3 5.1-.1 12.7-1 3.1-1.3 3.3-5.7 3.3-2.6 0-7.1.3-9.9.6-4.3.6-5.3 1-5.3 2.5 0 2.4 2.6 3 11.5 2.8 3.9-.1 8.1 0 9.5.2 2.2.4 2.6-.1 3.8-4.6.7-2.8 1.5-7.7 1.9-11.1.5-5.7.4-6.3-2.3-9.3-2.1-2.4-4-3.4-7.2-3.8-8.3-1.1-3.9-2.8 9.4-3.5 15.7-.9 17.4-1.3 17.4-3.7 0-2-2-3.2-4.8-3-.9.1-5.7.6-10.7 1.1zm127.6.6c-1.9.9-3.6 2.2-3.8 2.8-.6 1.7 2.4 2.5 5.3 1.4 1.4-.6 3.7-1 5.1-1 2.5 0 2.5 0 1.8 6.4-.7 7.2.4 9.2 3.1 5.2 2.4-3.7 2.4-11.9 0-14.5-2.4-2.6-6.9-2.7-11.5-.3zm-8.1 3.9c-.8 17.9-4 28.2-11.9 38-2.2 2.9-4.1 5.9-4.1 6.8 0 1.6 2.7 2 4.6.7 2.1-1.5 8.3-10.4 10-14.5l1.7-4.3 2.7 5.1c4.4 8.6 11.4 10.4 21.2 5.4 2.6-1.3 3.8-2.6 3.6-3.7-.4-2.1-3.7-2-9.6.2-5.8 2.2-8.8.7-12.1-5.9-2.3-4.4-2.6-6.2-2.6-15.5 0-5.8-.4-11.1-.8-11.8-.9-1.3-2.7-1.6-2.7-.5zm489.9 2.6c-3.3 2.2-5.2 6.7-2.9 6.7.6 0 2.9-1 5-2.2l3.9-2.3 2.3 2.3c3.1 2.8 8 2.9 14.2.2 4.6-1.9 6-4.5 3.1-5.6-.9-.4-3.8.3-6.5 1.5-5.2 2.2-7.2 2-10-1.3-1.8-2.2-5.1-2-9.1.7zM18.5 35.9c-1.1 1.9.5 5.1 3 5.7 3.8.9 5.7-1.2 3.7-4.3-1.1-1.7-5.9-2.7-6.7-1.4zm84.9 5.1c-2.3.5-6.5 2-9.3 3.4-4.6 2.4-5.1 2.9-5.1 6 0 4 3.7 7.6 7.7 7.6 3.9 0 9.4-3.1 14-7.7 4.5-4.7 7.3-5.3 10.3-2.3 2.6 2.6 2.5 5.1-.1 8.4-1.1 1.5-1.8 3.3-1.5 4.1.9 2.4 4.3 1.7 6.5-1.4 3.9-5.4 1.9-14.5-3.7-17.1-3.4-1.5-13.8-2.1-18.8-1zm1.7 7.4c-2.8 2.9-7.5 5-9.6 4.3-3.3-1.3.6-4.6 7-6 4.5-1 4.9-.7 2.6 1.7z"/><path d="M199.4 44.4c-1.1 2.9.4 4.6 3.8 4.6 4.2 0 6.1-1.2 5.6-3.6-.4-2.5-8.5-3.3-9.4-1zM25.5 46c-.4.6.7 3.2 2.4 5.9 1.7 2.6 3.1 5.2 3.1 5.8 0 2.2-4.1 4.4-10.1 5.4-7.6 1.2-18.8 5.7-20.3 8.2-2.2 3.5 1.3 3.7 9.8.5 12.4-4.7 17.6-4.4 36.3 2 8.4 2.9 16.4 5.2 17.9 5.2 1.6 0 7.1-1.3 12.3-3 5.3-1.6 10.8-3.2 12.4-3.5 2.9-.6 3.5-2.3 1.5-4.3-1.9-1.9-5-1.5-13.8 1.8-11 4.1-15.3 3.9-29.7-1.1-6.5-2.3-12.1-4.4-12.5-4.8-.4-.4-.3-2 .3-3.7 1-2.5.8-3.6-1.1-7.4-3.6-7.3-6.8-9.8-8.5-7zm111.9 14.4c-1.5 1.2-1.7 1.8-.8 3.3 1.5 2.4 3.8 2.7 5.8.8 1.2-1.2 1.3-2.1.6-3.6-1.3-2.3-2.9-2.4-5.6-.5zm9.8 2.3c.2 1.7 1 2.9 2.1 3.1 1.3.3 1.7-.3 1.7-2.7 0-2.5-.4-3.1-2.1-3.1-1.6 0-2 .5-1.7 2.7zm8.6-1.5c-.7 1.9.2 3.8 1.7 3.8 1.8 0 2.6-1.5 1.9-3.4-.7-1.9-3-2.1-3.6-.4zm8.2 1.3c0 1.5.6 2.5 1.4 2.5 1.9 0 2.8-1.4 2-3.4-1-2.5-3.4-1.9-3.4.9z"/></svg>