<svg version="1.0" xmlns="http://www.w3.org/2000/svg" width="560" height="362.667" viewBox="0 0 420 272"><path d="M167.3 3.2c-4.4 3.2-5.3 5.2-3 6.1 3.2 1.2 11.4-4.9 10.4-7.8-.9-2.2-2.7-1.8-7.4 1.7zm-14.9.3c-.7 1.7 2.1 6.5 3.6 6.5 1.6 0 1.2-4.7-.6-6.4-1.9-2-2.3-2-3-.1zm110 6.7c-.9 1.4 2 3.5 6.6 4.8 7.8 2.2 9.7-.1 3.1-3.8-4.2-2.4-8.6-2.9-9.7-1zM247.8 12c-8.5 4.5-11.9 14.1-6.9 19.4 2.9 3.1 5.5 4.1 16.1 6.1 8.5 1.6 12 3.7 12 7.2 0 2.1-2 5.6-4.2 7.1-2.2 1.6-2.3 3.5-.2 5.3 1.4 1.1 2 .9 4.5-1.9s2.9-4.1 2.9-9c0-9.4-3.5-12.5-16.2-14-7.8-1-13.8-3.4-13.8-5.5 0-4.8 9.1-12.4 13.5-11.3 3.4.9 3.1 2.5-.5 3.3-3 .6-3.7 1.7-4.3 7.3-.2 2.4 0 2.5 6.7 2.8 6.3.3 6.8.1 6.1-1.5-.4-1-.9-4.3-1.1-7.3-.7-9.4-6.2-12.4-14.6-8zM171 13.1c-5.2.4-14.3.4-20.2.1-10.4-.5-10.8-.4-10.8 1.6 0 2.3 1.1 2.7 8.3 3.8 4.6.6 4.7.7 3.1 2.5-.9 1-2.6 1.9-3.8 2.1-1.7.2-2.1 1-2.1 4.3 0 2.8-.9 5.3-2.9 8.3-3.1 4.5-2.6 7.3 1.1 5.7 1-.4 4.8-.7 8.5-.6 7.7.3 10.8-.4 10.8-2.5 0-1.1-1.6-1.4-7.1-1.4-5.2 0-7-.3-6.6-1.3.2-.8 2.6-1.2 7-1.2 5.6 0 6.7-.3 6.7-1.6 0-2.1-2-2.9-7.7-2.9-3.1 0-4.3-.4-4.1-1.2.6-1.8 7.2-3.1 11.4-2.4 4.8 1 5.9 3.7 4.2 10.7l-1.3 5.4-9.7.9c-9.9.9-11.6 1.9-8.3 4.6 1 .8 3.4 1 8 .5 4.8-.5 7.4-.4 9.1.6 1.5.8 2.8.9 3.4.3 1.8-1.8 4.5-18.1 3.5-21-1.4-3.9-5.7-6.8-9.9-6.6-2.7.1-3.4-.2-2.9-1.3.3-.8 1.5-1.5 2.7-1.6 11.5-.3 24.8-1.7 25.7-2.6.7-.7.9-1.9.6-2.7-.7-1.7-1.1-1.7-16.7-.5zm123.3.4c-1.9.8-3.3 2.1-3.3 3.1 0 1.4.7 1.5 3.8 1 7.9-1.4 7.7-1.4 7.6 2.4 0 1.9-.3 4.6-.5 6-.3 1.7.1 2.5 1.3 2.8 3.6.7 5.2-10.3 2.2-14.6-1.8-2.6-6.2-2.9-11.1-.7zm-8.3 8.9c0 11.4-3.7 22-10.9 31.5-4.6 6.1-4.8 6.9-2.4 7.8 2.1.8 8.1-6 11.8-13.5l2.7-5.4 2 4.1c2.8 5.7 6.2 8.1 11.2 8.1 5.7-.1 12.6-3.3 12.6-6 0-2.4-1.8-2.5-6.7-.5-7.5 3.2-11 1.6-14.6-6.5-1.6-3.5-2-6.8-2.1-14.5-.1-8.7-.3-10-1.8-10.3-1.5-.3-1.8.5-1.8 5.2zm-166 .4c0 2.5 1.9 4.2 4.7 4.2 2.5 0 3.2-2.7 1.1-4.8-1.9-1.9-5.8-1.5-5.8.6zm81.7 3.3c-2.7.4-6.9 1.8-9.5 3.1-4 1.9-4.7 2.8-5 5.5-.6 6.3 6 9.2 13.2 5.8 1.8-.9 5-3.4 7.1-5.5 2.2-2.2 4.9-4 6-4 4.5 0 7.2 6.3 4 9-2.2 1.9-1.9 6 .4 6 5 0 8-10.2 4.6-15.4-2.7-4.1-11.5-6-20.8-4.5zM201 34c-2 1.8-4.6 3-6.2 3-6.9 0 .6-5.7 7.7-5.9 1.7 0 1.4.5-1.5 2.9z"/><path d="M292 29.6c-1.2 1.4-1.2 1.8.2 2.8.9.7 3.3 1 5.3.8 3-.4 3.6-.8 3.3-2.6-.4-2.8-6.8-3.6-8.8-1zm-165 2.2c0 .9 1.1 3.4 2.5 5.4 1.4 2 2.5 4.1 2.5 4.6 0 2.1-4.4 4.6-9.3 5.3-6.1.8-15.8 4.3-18.7 6.7-1.4 1.2-1.7 2.1-1.1 3.1.8 1.3 2.5 1 11-1.9 12.2-4.1 14.5-3.9 33.1 2.4 7.4 2.5 15 4.6 16.8 4.6 1.9 0 7.4-1.4 12.4-3 4.9-1.7 9.8-3 10.8-3 2.5 0 3.5-1.7 2-3.5-1.8-2.2-4.5-1.9-14.5 1.5-4.9 1.6-10 3-11.4 3-1.4 0-8.2-1.9-15.1-4.3l-12.5-4.3.3-4.1c.4-4.1-1.4-9-4.6-12.6-2-2.2-4.2-2.2-4.2.1zm106.7 11.9c-2.7.7-1.9 5.7 1 6.1 2.8.4 5-3.2 3.2-5.4-.6-.8-1.4-1.3-1.8-1.3-.3.1-1.4.3-2.4.6zm8.3 2.2c0 1 .7 2.4 1.5 3.1 1.2 1 1.6.9 2.1-.4.3-.9.4-2.3 0-3.1-.8-2.1-3.6-1.9-3.6.4zm8.4-.5c-.7 1.9.3 3.6 2.2 3.6 1 0 1.4-.8 1.2-2.2-.4-2.6-2.6-3.6-3.4-1.4zm7.6 1.1c0 1.5.6 2.5 1.4 2.5 1.9 0 2.8-1.4 2-3.4-1-2.5-3.4-1.9-3.4.9zm89.3 25.9c-5.8 2.7-7.6 5.3-6.7 9.3 1.4 5.9 9.1 10.3 15.3 8.8 6.5-1.6 10.6-9.5 8.1-15.6-2.3-5.6-8.2-6.4-16.7-2.5zm11.9 5.1c2.3 5-4.3 10.1-9.8 7.6-4.6-2.1-4.3-6.3.7-8.8 4-2.1 7.8-1.6 9.1 1.2zm-247.4 3c-4.8 1.8-13.6 7.5-17 11.1-4.6 4.9-7 11.7-6.6 18.7l.3 6.2-5.5 2.7c-7.5 3.7-13.8 5-18.4 3.7-4.6-1.3-6.5-4.2-7.3-11-.7-6.4-1.7-7.9-5.2-7.9-2.1 0-3.8 1.4-7.6 6.2-6.2 7.7-18.4 18.3-25.5 22.2-3.8 2.1-6.9 2.9-11.4 3.2-3.3.1-6.4.3-6.8.3-1.8.2-.6 4.2 1.7 5.7 1.9 1.3 3.9 1.5 7.9 1.1 9.9-1 21.9-8.7 33.2-21.1l6.8-7.6 1.2 4c1.8 6.1 4.1 9 9.1 11.2 5.3 2.4 8.8 2 21.8-2.4 8.4-2.9 9-2.9 10-1.3 4 6.9 7.5 10.2 14.2 13.7l7.2 3.6-3.2 4c-3.9 4.8-7.3 7.7-14.9 12.6-6.5 4.1-7.9 7.6-3 7.6 5.1 0 18.7-10 25.4-18.7 4-5.3 4.3-5.5 7.9-4.9 5.2.8 17.2-1 22.8-3.5 7.4-3.2 11.6-6.6 16-12.9 4.6-6.5 7.9-9.5 13-11.6 6.2-2.6 9.2-1.8 16.7 4.2 9.6 7.8 17.1 8.3 33.7 2.3 6.1-2.3 12.5-4.8 14-5.6 1.6-.8 3.1-1.2 3.4-.9.3.2-.4 2.9-1.6 6-2.5 6.8-5.7 19.4-6.6 26.3-.5 3.5-.2 6.9.9 10.5 2.5 8.5 9.2 13.5 11.2 8.3.4-.9-.4-2.5-1.9-3.9-7.7-7.1-3.1-30.7 11.9-61.2 6-12.4 6.5-14.4 3.2-14.4-2.4 0-6.6 5.4-10.7 13.7-1.1 2.3-3.3 5-4.9 6.2-3.8 2.7-17.4 8.6-24.2 10.5-13.6 3.8-18.5 3-28.2-4.3-7.2-5.4-10.7-6-19.3-3.1-3.6 1.2-6.7 2-6.9 1.9-.1-.2-1.4-2.3-2.9-4.6-1.5-2.4-4.6-5.5-6.9-7-4-2.7-4.6-2.8-15.3-2.5l-11.1.2-1.7-3.5c-.9-2-2.4-3.8-3.3-4.2-2.5-.9-3.4 1.6-1.6 4.7 2.2 3.9 1.2 5.3-5.4 7.4-3.3 1-10.3 3.8-15.6 6.1-10.5 4.7-10.8 4.6-10.8-1.8 0-4.2 2.8-8.6 8.1-12.9 7.6-6.1 13.4-8.9 17.5-8.6 3.1.2 3.9-.1 4.2-1.6.9-4.2-5-5.7-12-3.1zm43.7 24.9c8.8 3.7 8.3 16.7-1.1 24.5-4.9 4-14.8 7.1-22.5 7.1-3.2 0-5.9-.1-5.9-.3 0-.2 1.4-4.1 3.1-8.8 1.7-4.6 3.7-11.5 4.3-15.4 1.1-6 1.5-7 3.7-7.6 4.3-1.2 14.9-.9 18.4.5zm-28 5.3c-1 5.8-5.5 18.7-7.6 22.2-2.3 3.8-4.8 4-10.9.8-4.8-2.4-11-9.6-11-12.8 0-2.1 5.1-5 18.5-10.5 10.8-4.5 11.9-4.5 11 .3zm183-24.5c-.2.7-.5 5.6-.8 10.9-.2 5.3-.7 10.1-1.1 10.7-.4.7-3.4-.7-8.4-3.9-7.3-4.8-8-5.1-13.3-4.7-6.8.5-19.2 6.2-19.7 9.2-.7 3.5 1.3 3.5 8.8.1 10.8-5 13.7-4.7 23.2 1.7 5.4 3.7 7.8 5.9 7.8 7.3-.1 1.1-1.3 5.6-2.8 10l-2.7 8-6 .6c-6.9.7-9.8 1.8-15.5 5.5-5 3.4-7 6.9-7 12.7 0 5.9 2.3 8.7 7.7 9.4 7.1.9 14.8-4.5 22.8-16.2 1.3-1.9 1.3-1.9 5.9.3 5.6 2.8 8.1 2.6 8.1-.8 0-2.3-1.5-3.7-8.1-7.6-1.7-1-1.6-1.5 1-11.1l2.8-10.1 7.6-.5c6.1-.3 9.8-1.4 17.7-4.7 17.8-7.5 23.1-11.3 20.4-14.6-1.7-2.1-3.6-1.7-8.5 1.6-5 3.5-15.3 8.1-23.6 10.5-6 1.7-12.4 1.7-12.1 0 .1-.6.5-5.4.9-10.7.6-8.2.4-10.1-1-12.3-1.8-2.7-3.4-3.2-4.1-1.3zm-13.7 56.7c1 .6.3 2-2.8 5.9-5 6.3-8 8.4-11.7 8-2.3-.2-2.9-.8-3.1-3.5-.3-2.7.2-3.5 4-6.1 6.4-4.3 11.2-5.9 13.6-4.3zm74.4-52.5c-5.2 1.7-7.2 3.3-7.2 5.6 0 2.7 2.1 3 8 .9 6.4-2.2 11.9-1.3 17 3 3.2 2.6 3.2 2.7 1.7 5.6-.9 1.7-3.6 5.1-6.1 7.7-3.9 4-4.6 5.3-4.6 8.7 0 3.1.7 4.9 3.1 7.6 1.8 2 3 3.7 2.8 3.9-.2.2-3.8 1.9-7.9 3.9-14.7 7.2-21 13.5-21 21.4 0 3.5.6 4.8 3.4 7.6 4 4 8.1 5.1 14.4 3.6 6.5-1.4 12.2-5 17.7-11.1 6.6-7.4 7.8-10.1 7.2-16.4-.6-6.3-.5-6.4 11.8-7.3 8.6-.6 10.4-2.1 6.9-5.6-1.5-1.5-2.9-1.6-8.5-1.1-3.7.3-9 1.1-11.8 1.8-5 1.1-5.2 1.1-8.2-1.8-5.5-5.2-5.5-5.9-.1-11.7 6-6.4 7.2-8.5 7.2-13.2 0-5.6-2.3-9-7.7-11.3-6.6-2.8-12.9-3.4-18.1-1.8zm21.6 52.9c.4 3.7-5 12.1-9.7 15.2-4.4 2.9-11.6 4.8-14.7 4.1-1.3-.4-3.1-1.7-4-3.1-1.5-2.3-1.5-2.7 0-5 .9-1.4 3.4-3.7 5.5-5.1 5.1-3.3 19.2-9.5 21.1-9.1.8.1 1.6 1.5 1.8 3z"/><path d="M200.1 158.7c-7.6 20.6-12.4 56-8.7 64.6 5.8 13.7 26.2 15.4 49.4 4.2 8.7-4.2 9.3-4.7 9-7.2-.5-4.2-3.5-4-12.8.7-13.3 6.7-27.4 8.4-35.2 4.4-6.2-3.2-7.6-9.5-5.3-24.9 2-13 3.7-21.1 7.1-32.3 2.8-9.1 2.9-14.5.3-15-1.2-.2-2.2 1.4-3.8 5.5zM140 172.1c-14.3 1.6-27.4 8.4-38.5 20-11 11.6-13.4 21.5-6.4 27.3 7.4 6.3 19.1 3.5 37.5-8.9 8.4-5.7 13.8-10.7 17.1-15.8 5.1-8-.1-12.3-5.5-4.5-5.1 7.3-14.1 14.2-27.9 21.3-7.5 3.8-15 4.7-17.3 2-4.4-5.3 9-21.4 24.5-29.1 20.9-10.4 39.2-7.8 46.5 6.7 2.7 5.2 2.5 9.6-.6 15.4-2.7 5.2-2.6 8.8.2 9.9 2.4.9 5-1.9 6.8-7.2 4.6-13.4-1.6-27.8-14.7-34.1-7.1-3.3-12.4-4.1-21.7-3z"/><path d="M274.8 178.7c-.9 1-2.6 4.7-3.8 8.3-4.7 14.1-1.5 23.9 7.3 21.6 1.2-.3 6-3.3 10.6-6.6 11.8-8.5 21.3-13 30.3-14.3 8.6-1.2 10.4-.8 11.9 3 3.7 9.6-9.4 32.6-26.9 47.2-19.6 16.4-34.7 23.1-56 24.7-11.7.9-19.3-1.1-27.8-7.2-7.3-5.2-12.2-7.4-16.1-7.4-1.5 0-9.5 3.3-17.8 7.4-17.3 8.5-21 9.8-27.4 9.9-7.4.1-13.1-5.1-13.1-11.8 0-3.3-1.7-6.5-3.4-6.5-.7 0-5.9 2.4-11.7 5.4-5.7 3-13.2 6.4-16.6 7.5-7.1 2.4-18.6 2.9-20.2.8-.6-.6-2.1-2.5-3.4-4.1-2.8-3.4-4.7-2.8-4.7 1.6 0 4.5 5.2 9.3 11 10.2 8.4 1.2 27.7-4 38-10.3 4.6-2.8 5.6-2.7 6.3.6 2.6 11.8 15.4 16.3 30.7 10.8 4.1-1.5 12.6-5.2 18.9-8.1 6.3-3 12.6-5.4 14-5.4 1.5 0 6.3 2.3 10.6 5 11.4 7.2 16.4 8.5 31.5 8.4 7.5-.1 15.3-.8 19.4-1.8 18.8-4.4 44.7-22.3 57.8-39.9 14.2-19.2 18.5-37.1 10.8-44.9-2.5-2.4-3.6-2.8-8.7-2.8-12.3 0-23.6 4.2-39.7 14.6-8.4 5.5-8.9 5.7-10.2 3.9-1.7-2.3-1-7.3 1.8-12.8 2.2-4.4 2.1-8-.3-8.5-.8-.1-2.2.5-3.1 1.5z"/><path d="M219.4 192.4c-3.3 1.5-7.4 6-7.4 8.3 0 2.7 3.1 2.5 8-.7l5-3.2 3.5 3.1c4.4 3.8 9.1 4.1 17.7.9 6.6-2.4 8.5-4.5 6.4-7.4-1.3-1.8-1.6-1.7-8 .9-8.4 3.4-10.6 3.4-14.1-.3-3.2-3.3-6.1-3.7-11.1-1.6z"/></svg>