<?xml version="1.0" standalone="no"?>
<!DOCTYPE svg PUBLIC "-//W3C//DTD SVG 20010904//EN"
 "http://www.w3.org/TR/2001/REC-SVG-20010904/DTD/svg10.dtd">
<svg version="1.0" xmlns="http://www.w3.org/2000/svg"
 width="420.000000pt" height="272.000000pt" viewBox="0 0 420.000000 272.000000"
 preserveAspectRatio="xMidYMid meet">

<g transform="translate(0.000000,272.000000) scale(0.100000,-0.100000)"
fill="#000000" stroke="none">
<path d="M1673 2688 c-44 -32 -53 -52 -30 -61 32 -12 114 49 104 78 -9 22 -27
18 -74 -17z"/>
<path d="M1524 2685 c-7 -17 21 -65 36 -65 16 0 12 47 -6 64 -19 20 -23 20
-30 1z"/>
<path d="M2624 2618 c-9 -14 20 -35 66 -48 78 -22 97 1 31 38 -42 24 -86 29
-97 10z"/>
<path d="M2478 2600 c-85 -45 -119 -141 -69 -194 29 -31 55 -41 161 -61 85
-16 120 -37 120 -72 0 -21 -20 -56 -42 -71 -22 -16 -23 -35 -2 -53 14 -11 20
-9 45 19 25 28 29 41 29 90 0 94 -35 125 -162 140 -78 10 -138 34 -138 55 0
48 91 124 135 113 34 -9 31 -25 -5 -33 -30 -6 -37 -17 -43 -73 -2 -24 0 -25
67 -28 63 -3 68 -1 61 15 -4 10 -9 43 -11 73 -7 94 -62 124 -146 80z"/>
<path d="M1710 2589 c-52 -4 -143 -4 -202 -1 -104 5 -108 4 -108 -16 0 -23 11
-27 83 -38 46 -6 47 -7 31 -25 -9 -10 -26 -19 -38 -21 -17 -2 -21 -10 -21 -43
0 -28 -9 -53 -29 -83 -31 -45 -26 -73 11 -57 10 4 48 7 85 6 77 -3 108 4 108
25 0 11 -16 14 -71 14 -52 0 -70 3 -66 13 2 8 26 12 70 12 56 0 67 3 67 16 0
21 -20 29 -77 29 -31 0 -43 4 -41 12 6 18 72 31 114 24 48 -10 59 -37 42 -107
l-13 -54 -97 -9 c-99 -9 -116 -19 -83 -46 10 -8 34 -10 80 -5 48 5 74 4 91 -6
15 -8 28 -9 34 -3 18 18 45 181 35 210 -14 39 -57 68 -99 66 -27 -1 -34 2 -29
13 3 8 15 15 27 16 115 3 248 17 257 26 7 7 9 19 6 27 -7 17 -11 17 -167 5z"/>
<path d="M2943 2585 c-19 -8 -33 -21 -33 -31 0 -14 7 -15 38 -10 79 14 77 14
76 -24 0 -19 -3 -46 -5 -60 -3 -17 1 -25 13 -28 36 -7 52 103 22 146 -18 26
-62 29 -111 7z"/>
<path d="M2860 2496 c0 -114 -37 -220 -109 -315 -46 -61 -48 -69 -24 -78 21
-8 81 60 118 135 l27 54 20 -41 c28 -57 62 -81 112 -81 57 1 126 33 126 60 0
24 -18 25 -67 5 -75 -32 -110 -16 -146 65 -16 35 -20 68 -21 145 -1 87 -3 100
-18 103 -15 3 -18 -5 -18 -52z"/>
<path d="M1200 2492 c0 -25 19 -42 47 -42 25 0 32 27 11 48 -19 19 -58 15 -58
-6z"/>
<path d="M2017 2459 c-27 -4 -69 -18 -95 -31 -40 -19 -47 -28 -50 -55 -6 -63
60 -92 132 -58 18 9 50 34 71 55 22 22 49 40 60 40 45 0 72 -63 40 -90 -22
-19 -19 -60 4 -60 50 0 80 102 46 154 -27 41 -115 60 -208 45z m-7 -79 c-20
-18 -46 -30 -62 -30 -69 0 6 57 77 59 17 0 14 -5 -15 -29z"/>
<path d="M2920 2424 c-12 -14 -12 -18 2 -28 9 -7 33 -10 53 -8 30 4 36 8 33
26 -4 28 -68 36 -88 10z"/>
<path d="M1270 2402 c0 -9 11 -34 25 -54 14 -20 25 -41 25 -46 0 -21 -44 -46
-93 -53 -61 -8 -158 -43 -187 -67 -14 -12 -17 -21 -11 -31 8 -13 25 -10 110
19 122 41 145 39 331 -24 74 -25 150 -46 168 -46 19 0 74 14 124 30 49 17 98
30 108 30 25 0 35 17 20 35 -18 22 -45 19 -145 -15 -49 -16 -100 -30 -114 -30
-14 0 -82 19 -151 43 l-125 43 3 41 c4 41 -14 90 -46 126 -20 22 -42 22 -42
-1z"/>
<path d="M2337 2283 c-27 -7 -19 -57 10 -61 28 -4 50 32 32 54 -6 8 -14 13
-18 13 -3 -1 -14 -3 -24 -6z"/>
<path d="M2420 2261 c0 -10 7 -24 15 -31 12 -10 16 -9 21 4 3 9 4 23 0 31 -8
21 -36 19 -36 -4z"/>
<path d="M2504 2266 c-7 -19 3 -36 22 -36 10 0 14 8 12 22 -4 26 -26 36 -34
14z"/>
<path d="M2580 2255 c0 -15 6 -25 14 -25 19 0 28 14 20 34 -10 25 -34 19 -34
-9z"/>
<path d="M3473 1996 c-58 -27 -76 -53 -67 -93 14 -59 91 -103 153 -88 65 16
106 95 81 156 -23 56 -82 64 -167 25z m119 -51 c23 -50 -43 -101 -98 -76 -46
21 -43 63 7 88 40 21 78 16 91 -12z"/>
<path d="M1118 1915 c-48 -18 -136 -75 -170 -111 -46 -49 -70 -117 -66 -187
l3 -62 -55 -27 c-75 -37 -138 -50 -184 -37 -46 13 -65 42 -73 110 -7 64 -17
79 -52 79 -21 0 -38 -14 -76 -62 -62 -77 -184 -183 -255 -222 -38 -21 -69 -29
-114 -32 -33 -1 -64 -3 -68 -3 -18 -2 -6 -42 17 -57 19 -13 39 -15 79 -11 99
10 219 87 332 211 l68 76 12 -40 c18 -61 41 -90 91 -112 53 -24 88 -20 218 24
84 29 90 29 100 13 40 -69 75 -102 142 -137 l72 -36 -32 -40 c-39 -48 -73 -77
-149 -126 -65 -41 -79 -76 -30 -76 51 0 187 100 254 187 40 53 43 55 79 49 52
-8 172 10 228 35 74 32 116 66 160 129 46 65 79 95 130 116 62 26 92 18 167
-42 96 -78 171 -83 337 -23 61 23 125 48 140 56 16 8 31 12 34 9 3 -2 -4 -29
-16 -60 -25 -68 -57 -194 -66 -263 -5 -35 -2 -69 9 -105 25 -85 92 -135 112
-83 4 9 -4 25 -19 39 -77 71 -31 307 119 612 60 124 65 144 32 144 -24 0 -66
-54 -107 -137 -11 -23 -33 -50 -49 -62 -38 -27 -174 -86 -242 -105 -136 -38
-185 -30 -282 43 -72 54 -107 60 -193 31 -36 -12 -67 -20 -69 -19 -1 2 -14 23
-29 46 -15 24 -46 55 -69 70 -40 27 -46 28 -153 25 l-111 -2 -17 35 c-9 20
-24 38 -33 42 -25 9 -34 -16 -16 -47 22 -39 12 -53 -54 -74 -33 -10 -103 -38
-156 -61 -105 -47 -108 -46 -108 18 0 42 28 86 81 129 76 61 134 89 175 86 31
-2 39 1 42 16 9 42 -50 57 -120 31z m437 -249 c88 -37 83 -167 -11 -245 -49
-40 -148 -71 -225 -71 -32 0 -59 1 -59 3 0 2 14 41 31 88 17 46 37 115 43 154
11 60 15 70 37 76 43 12 149 9 184 -5z m-280 -53 c-10 -58 -55 -187 -76 -222
-23 -38 -48 -40 -109 -8 -48 24 -110 96 -110 128 0 21 51 50 185 105 108 45
119 45 110 -3z"/>
<path d="M3105 1858 c-2 -7 -5 -56 -8 -109 -2 -53 -7 -101 -11 -107 -4 -7 -34
7 -84 39 -73 48 -80 51 -133 47 -68 -5 -192 -62 -197 -92 -7 -35 13 -35 88 -1
108 50 137 47 232 -17 54 -37 78 -59 78 -73 -1 -11 -13 -56 -28 -100 l-27 -80
-60 -6 c-69 -7 -98 -18 -155 -55 -50 -34 -70 -69 -70 -127 0 -59 23 -87 77
-94 71 -9 148 45 228 162 13 19 13 19 59 -3 56 -28 81 -26 81 8 0 23 -15 37
-81 76 -17 10 -16 15 10 111 l28 101 76 5 c61 3 98 14 177 47 178 75 231 113
204 146 -17 21 -36 17 -85 -16 -50 -35 -153 -81 -236 -105 -60 -17 -124 -17
-121 0 1 6 5 54 9 107 6 82 4 101 -10 123 -18 27 -34 32 -41 13z m-137 -567
c10 -6 3 -20 -28 -59 -50 -63 -80 -84 -117 -80 -23 2 -29 8 -31 35 -3 27 2 35
40 61 64 43 112 59 136 43z"/>
<path d="M3712 1816 c-52 -17 -72 -33 -72 -56 0 -27 21 -30 80 -9 64 22 119
13 170 -30 32 -26 32 -27 17 -56 -9 -17 -36 -51 -61 -77 -39 -40 -46 -53 -46
-87 0 -31 7 -49 31 -76 18 -20 30 -37 28 -39 -2 -2 -38 -19 -79 -39 -147 -72
-210 -135 -210 -214 0 -35 6 -48 34 -76 40 -40 81 -51 144 -36 65 14 122 50
177 111 66 74 78 101 72 164 -6 63 -5 64 118 73 86 6 104 21 69 56 -15 15 -29
16 -85 11 -37 -3 -90 -11 -118 -18 -50 -11 -52 -11 -82 18 -55 52 -55 59 -1
117 60 64 72 85 72 132 0 56 -23 90 -77 113 -66 28 -129 34 -181 18z m216
-529 c4 -37 -50 -121 -97 -152 -44 -29 -116 -48 -147 -41 -13 4 -31 17 -40 31
-15 23 -15 27 0 50 9 14 34 37 55 51 51 33 192 95 211 91 8 -1 16 -15 18 -30z"/>
<path d="M2001 1133 c-76 -206 -124 -560 -87 -646 58 -137 262 -154 494 -42
87 42 93 47 90 72 -5 42 -35 40 -128 -7 -133 -67 -274 -84 -352 -44 -62 32
-76 95 -53 249 20 130 37 211 71 323 28 91 29 145 3 150 -12 2 -22 -14 -38
-55z"/>
<path d="M1400 999 c-143 -16 -274 -84 -385 -200 -110 -116 -134 -215 -64
-273 74 -63 191 -35 375 89 84 57 138 107 171 158 51 80 -1 123 -55 45 -51
-73 -141 -142 -279 -213 -75 -38 -150 -47 -173 -20 -44 53 90 214 245 291 209
104 392 78 465 -67 27 -52 25 -96 -6 -154 -27 -52 -26 -88 2 -99 24 -9 50 19
68 72 46 134 -16 278 -147 341 -71 33 -124 41 -217 30z"/>
<path d="M2748 933 c-9 -10 -26 -47 -38 -83 -47 -141 -15 -239 73 -216 12 3
60 33 106 66 118 85 213 130 303 143 86 12 104 8 119 -30 37 -96 -94 -326
-269 -472 -196 -164 -347 -231 -560 -247 -117 -9 -193 11 -278 72 -73 52 -122
74 -161 74 -15 0 -95 -33 -178 -74 -173 -85 -210 -98 -274 -99 -74 -1 -131 51
-131 118 0 33 -17 65 -34 65 -7 0 -59 -24 -117 -54 -57 -30 -132 -64 -166 -75
-71 -24 -186 -29 -202 -8 -6 6 -21 25 -34 41 -28 34 -47 28 -47 -16 0 -45 52
-93 110 -102 84 -12 277 40 380 103 46 28 56 27 63 -6 26 -118 154 -163 307
-108 41 15 126 52 189 81 63 30 126 54 140 54 15 0 63 -23 106 -50 114 -72
164 -85 315 -84 75 1 153 8 194 18 188 44 447 223 578 399 142 192 185 371
108 449 -25 24 -36 28 -87 28 -123 0 -236 -42 -397 -146 -84 -55 -89 -57 -102
-39 -17 23 -10 73 18 128 22 44 21 80 -3 85 -8 1 -22 -5 -31 -15z"/>
<path d="M2194 796 c-33 -15 -74 -60 -74 -83 0 -27 31 -25 80 7 l50 32 35 -31
c44 -38 91 -41 177 -9 66 24 85 45 64 74 -13 18 -16 17 -80 -9 -84 -34 -106
-34 -141 3 -32 33 -61 37 -111 16z"/>
</g>
</svg>
