<?xml version="1.0" standalone="no"?>
<!DOCTYPE svg PUBLIC "-//W3C//DTD SVG 20010904//EN"
 "http://www.w3.org/TR/2001/REC-SVG-20010904/DTD/svg10.dtd">
<svg version="1.0" xmlns="http://www.w3.org/2000/svg"
 width="772.000000pt" height="102.000000pt" viewBox="0 0 772.000000 102.000000"
 preserveAspectRatio="xMidYMid meet">

<g transform="translate(0.000000,102.000000) scale(0.100000,-0.100000)"
fill="#000000" stroke="none">
<path d="M5195 1006 c-49 -22 -69 -50 -58 -83 18 -56 109 -78 154 -37 35 32
32 102 -5 126 -17 12 -58 9 -91 -6z m83 -49 c9 -44 -59 -74 -92 -41 -21 21
-20 30 7 49 29 21 81 16 85 -8z"/>
<path d="M6721 973 c-35 -67 -91 -336 -91 -436 0 -134 105 -194 270 -156 48
11 156 62 180 85 12 12 12 16 -1 29 -14 14 -23 12 -90 -19 -41 -20 -98 -40
-126 -46 -57 -10 -133 -1 -158 20 -43 36 -39 157 12 349 33 126 40 164 35 179
-5 17 -20 15 -31 -5z"/>
<path d="M7227 943 c-52 -120 -32 -223 39 -196 10 4 45 26 77 50 84 61 173
102 241 109 51 6 61 4 72 -11 80 -109 -192 -436 -467 -564 -183 -84 -658 -199
-984 -238 -114 -13 -229 -18 -480 -18 l-330 0 -168 43 c-268 68 -346 73 -540
31 -87 -18 -448 -81 -538 -93 -25 -4 -98 -7 -161 -8 -186 -1 -297 32 -324 97
-7 18 -18 36 -24 40 -5 3 -47 -3 -93 -14 -45 -11 -182 -36 -302 -57 -199 -34
-239 -37 -410 -38 l-190 -1 -46 27 c-50 30 -90 36 -108 15 -13 -16 4 -35 58
-62 101 -51 525 -30 909 44 l143 28 21 -30 c49 -69 209 -104 433 -94 141 7
293 28 592 82 105 19 219 35 253 35 36 0 133 -16 233 -39 243 -56 353 -65 716
-58 421 8 600 33 995 138 318 84 443 141 609 274 118 95 155 139 217 260 72
140 65 246 -17 261 -77 15 -221 -34 -331 -113 -26 -18 -52 -33 -59 -33 -24 0
-25 47 -3 98 12 28 19 56 15 61 -13 21 -32 10 -48 -26z"/>
<path d="M3424 909 c-50 -14 -126 -70 -158 -117 -25 -36 -30 -52 -31 -105 l0
-62 -47 -23 c-70 -35 -117 -39 -150 -12 -17 12 -28 31 -28 45 0 35 -17 75 -35
82 -11 4 -44 -24 -107 -91 -103 -110 -161 -149 -233 -156 -58 -6 -75 -33 -30
-50 67 -25 176 30 280 143 36 38 67 68 68 66 2 -2 9 -19 17 -37 30 -76 94 -90
215 -47 39 14 73 25 76 25 4 0 19 -18 33 -41 19 -28 44 -48 82 -66 30 -13 54
-28 54 -31 0 -17 -63 -82 -114 -117 -59 -41 -71 -65 -33 -65 38 0 151 91 192
154 13 20 27 24 93 29 111 9 192 52 247 130 76 109 138 126 225 62 44 -32 63
-40 109 -42 48 -3 71 2 165 41 101 42 108 43 102 23 -55 -194 -62 -281 -30
-336 18 -31 58 -51 72 -37 3 4 1 15 -6 24 -32 44 -44 88 -39 142 6 65 65 246
114 347 32 67 37 103 15 103 -12 0 -55 -63 -79 -114 -14 -31 -31 -45 -88 -73
-98 -50 -170 -73 -225 -73 -39 0 -58 7 -106 40 -65 44 -93 48 -154 24 l-40
-16 -48 51 -48 51 -95 0 -94 0 -18 32 c-13 23 -21 28 -29 20 -9 -9 -8 -18 1
-38 14 -32 11 -35 -54 -59 -27 -10 -76 -31 -108 -47 -32 -16 -62 -26 -67 -23
-22 13 -10 74 20 109 47 53 125 99 155 92 33 -8 47 21 20 40 -21 16 -19 16
-61 3z m341 -204 c43 -43 28 -115 -35 -169 -35 -29 -116 -56 -168 -56 -39 0
-39 -7 -3 115 12 38 21 82 21 96 0 34 8 37 93 38 59 1 71 -2 92 -24z m-244
-80 c-6 -23 -20 -63 -30 -89 -17 -39 -25 -46 -48 -46 -15 0 -43 9 -61 20 -33
20 -74 77 -69 95 4 12 140 82 182 93 25 7 31 6 33 -11 2 -11 -1 -39 -7 -62z"/>
<path d="M4914 902 c-5 -4 -10 -40 -11 -80 0 -40 -4 -77 -9 -82 -5 -5 -32 5
-64 26 -39 24 -65 34 -95 34 -48 -1 -149 -48 -153 -72 -5 -24 15 -23 82 7 31
14 65 25 75 25 10 0 47 -19 81 -42 62 -41 62 -41 56 -80 -4 -21 -13 -56 -22
-77 -15 -37 -17 -39 -70 -43 -39 -3 -66 -13 -97 -34 -94 -66 -74 -189 29 -170
34 7 115 76 139 119 10 18 12 18 47 2 38 -18 73 -14 66 8 -3 6 -21 23 -42 37
-41 26 -40 21 -10 126 l15 52 62 4 c45 3 89 16 159 47 108 47 138 72 119 95
-11 13 -24 9 -94 -29 -87 -47 -195 -82 -221 -72 -14 6 -15 19 -10 89 4 62 2
87 -8 100 -7 10 -18 14 -24 10z m-104 -442 c0 -16 -85 -100 -102 -100 -25 0
-44 29 -31 48 26 43 133 85 133 52z"/>
<path d="M730 882 c-27 -9 -90 -63 -90 -77 0 -35 67 -16 111 31 20 21 21 26 8
38 -8 7 -21 11 -29 8z"/>
<path d="M5358 854 c-55 -29 -27 -61 32 -37 20 8 49 12 66 8 37 -6 84 -40 84
-60 0 -7 -20 -35 -45 -63 -52 -57 -56 -87 -21 -129 l24 -29 -71 -37 c-108 -56
-147 -96 -147 -152 0 -37 16 -62 52 -81 98 -51 288 98 271 212 -4 28 -2 32 27
38 18 3 53 6 77 6 40 0 44 2 41 23 -2 18 -10 23 -48 25 -25 2 -69 -2 -98 -8
-48 -11 -56 -10 -74 7 -41 37 -40 47 7 102 53 62 61 113 23 149 -47 43 -146
56 -200 26z m190 -390 c2 -12 -11 -40 -30 -65 -62 -81 -178 -104 -186 -37 -4
31 22 52 119 98 71 34 93 35 97 4z"/>
<path d="M526 851 c-8 -12 9 -57 24 -66 22 -14 33 11 19 41 -15 30 -34 41 -43
25z"/>
<path d="M6229 818 c-109 -14 -208 -67 -287 -153 -86 -92 -96 -176 -25 -213
52 -28 138 -3 252 73 81 53 125 94 147 137 14 28 14 32 -1 47 -18 18 -11 24
-76 -61 -29 -36 -164 -122 -227 -143 -162 -56 -80 131 97 220 160 80 296 62
351 -45 25 -49 25 -66 0 -115 -23 -46 -25 -59 -7 -73 48 -40 89 125 51 201
-50 100 -144 142 -275 125z"/>
<path d="M1687 776 c-7 -18 7 -29 52 -45 46 -15 94 -15 89 2 -7 18 -79 57
-109 57 -15 0 -29 -6 -32 -14z"/>
<path d="M1523 754 c-46 -27 -93 -96 -93 -135 0 -35 33 -84 66 -97 16 -6 73
-20 127 -31 54 -11 105 -25 113 -32 25 -21 17 -75 -17 -114 -35 -39 -33 -68 3
-63 57 8 86 117 50 188 -22 45 -67 67 -163 78 -136 17 -167 50 -110 115 41 47
94 71 121 57 27 -14 25 -30 -2 -30 -36 0 -46 -12 -53 -62 l-7 -48 72 0 c65 0
71 2 65 18 -4 9 -9 31 -10 47 -1 17 -2 43 -3 58 -3 40 -43 77 -84 77 -18 0
-52 -12 -75 -26z"/>
<path d="M745 748 c-49 -5 -147 -6 -216 -2 -92 4 -129 2 -134 -6 -14 -22 23
-43 87 -49 l63 -6 -29 -22 c-16 -13 -37 -23 -47 -23 -25 0 -30 -13 -18 -49 10
-28 8 -35 -20 -70 -17 -21 -31 -46 -31 -54 0 -17 27 -31 34 -18 3 5 47 9 97 9
51 1 96 5 102 11 20 20 -6 31 -73 31 -60 0 -69 2 -63 16 5 14 18 16 75 12 50
-4 68 -2 68 7 0 22 -24 34 -78 37 -72 4 -55 28 25 35 53 5 63 3 83 -17 23 -23
23 -51 -1 -127 -10 -31 -13 -33 -57 -33 -26 0 -71 -3 -99 -6 -43 -6 -53 -10
-53 -25 0 -24 26 -30 115 -28 39 1 81 0 95 -2 22 -4 26 1 38 46 7 28 15 77 19
111 5 57 4 63 -23 93 -21 24 -40 34 -72 38 -83 11 -39 28 94 35 157 9 174 13
174 37 0 20 -20 32 -48 30 -9 -1 -57 -6 -107 -11z"/>
<path d="M2021 742 c-19 -9 -36 -22 -38 -28 -6 -17 24 -25 53 -14 14 6 37 10
51 10 25 0 25 0 18 -64 -7 -72 4 -92 31 -52 24 37 24 119 0 145 -24 26 -69 27
-115 3z"/>
<path d="M1940 703 c-8 -179 -40 -282 -119 -380 -22 -29 -41 -59 -41 -68 0
-16 27 -20 46 -7 21 15 83 104 100 145 l17 43 27 -51 c44 -86 114 -104 212
-54 26 13 38 26 36 37 -4 21 -37 20 -96 -2 -58 -22 -88 -7 -121 59 -23 44 -26
62 -26 155 0 58 -4 111 -8 118 -9 13 -27 16 -27 5z"/>
<path d="M6839 677 c-33 -22 -52 -67 -29 -67 6 0 29 10 50 22 l39 23 23 -23
c31 -28 80 -29 142 -2 46 19 60 45 31 56 -9 4 -38 -3 -65 -15 -52 -22 -72 -20
-100 13 -18 22 -51 20 -91 -7z"/>
<path d="M185 661 c-11 -19 5 -51 30 -57 38 -9 57 12 37 43 -11 17 -59 27 -67
14z"/>
<path d="M1034 610 c-23 -5 -65 -20 -93 -34 -46 -24 -51 -29 -51 -60 0 -40 37
-76 77 -76 39 0 94 31 140 77 45 47 73 53 103 23 26 -26 25 -51 -1 -84 -11
-15 -18 -33 -15 -41 9 -24 43 -17 65 14 39 54 19 145 -37 171 -34 15 -138 21
-188 10z m17 -74 c-28 -29 -75 -50 -96 -43 -33 13 6 46 70 60 45 10 49 7 26
-17z"/>
<path d="M1994 576 c-11 -29 4 -46 38 -46 42 0 61 12 56 36 -4 25 -85 33 -94
10z"/>
<path d="M255 560 c-4 -6 7 -32 24 -59 17 -26 31 -52 31 -58 0 -22 -41 -44
-101 -54 -76 -12 -188 -57 -203 -82 -22 -35 13 -37 98 -5 124 47 176 44 363
-20 84 -29 164 -52 179 -52 16 0 71 13 123 30 53 16 108 32 124 35 29 6 35 23
15 43 -19 19 -50 15 -138 -18 -110 -41 -153 -39 -297 11 -65 23 -121 44 -125
48 -4 4 -3 20 3 37 10 25 8 36 -11 74 -36 73 -68 98 -85 70z"/>
<path d="M1374 416 c-15 -12 -17 -18 -8 -33 15 -24 38 -27 58 -8 12 12 13 21
6 36 -13 23 -29 24 -56 5z"/>
<path d="M1472 393 c2 -17 10 -29 21 -31 13 -3 17 3 17 27 0 25 -4 31 -21 31
-16 0 -20 -5 -17 -27z"/>
<path d="M1558 408 c-7 -19 2 -38 17 -38 18 0 26 15 19 34 -7 19 -30 21 -36 4z"/>
<path d="M1640 395 c0 -15 6 -25 14 -25 19 0 28 14 20 34 -10 25 -34 19 -34
-9z"/>
</g>
</svg>
